Coordinates
version=1
nRows=22
nColumns=38
inDegrees=no

Units are S.I. units (second, meters, Newtons, ...)
If the header above contains a line with 'inDegrees', this indicates whether rotational values are in degrees (yes) or radians (no).

endheader
time	pelvis_tilt	pelvis_list	pelvis_rotation	pelvis_tx	pelvis_ty	pelvis_tz	hip_flexion_r	hip_adduction_r	hip_rotation_r	knee_angle_r	ankle_angle_r	subtalar_angle_r	mtp_angle_r	hip_flexion_l	hip_adduction_l	hip_rotation_l	knee_angle_l	ankle_angle_l	subtalar_angle_l	mtp_angle_l	lumbar_extension	lumbar_bending	lumbar_rotation	arm_flex_r	arm_add_r	arm_rot_r	elbow_flex_r	pro_sup_r	wrist_flex_r	wrist_dev_r	arm_flex_l	arm_add_l	arm_rot_l	elbow_flex_l	pro_sup_l	wrist_flex_l	wrist_dev_l
4.11	-0.135938	-0.0115399	-0.142626	0.838938	0.980912	-0.315592	-0.19539	-0.0217766	-0.13452	-0.704609	-0.100059	0.1	-0.00419479	0.923074	-0.0993724	-0.234493	-0.536121	0.550436	0.1	-0.00818598	-0.159375	-0.0671372	0.335842	-0.103776	-0.759477	-0.131706	2.271	1.48153	0.0133049	-0.0278198	-0.878163	-0.279012	-0.323251	1.98926	2.07846	0.00417504	-0.00403576
4.12	-0.136355	-0.0300795	-0.140064	0.841911	0.981873	-0.315029	-0.188162	-0.00923659	-0.124859	-0.799196	-0.104847	0.1	-0.00419479	0.884032	-0.11012	-0.266126	-0.443871	0.562323	0.1	-0.00818598	-0.156063	-0.047259	0.332673	-0.143698	-0.761154	-0.162109	2.2806	1.48814	0.0133049	-0.0278198	-0.878521	-0.273435	-0.334984	2.00253	2.06555	0.00417504	-0.00403576
4.13	-0.134375	-0.0472954	-0.136431	0.844569	0.982063	-0.314739	-0.172775	0.000750124	-0.117348	-0.913093	-0.102187	0.1	-0.00419479	0.844372	-0.118462	-0.295202	-0.37313	0.565202	0.1	-0.00818598	-0.156476	-0.0283968	0.325285	-0.187452	-0.760207	-0.191164	2.28397	1.49499	0.0133049	-0.0278198	-0.873505	-0.269933	-0.345667	2.01309	2.05389	0.00417504	-0.00403576
4.14	-0.129623	-0.0617666	-0.131674	0.846891	0.981485	-0.314773	-0.150943	0.00633692	-0.11285	-1.04206	-0.0967609	0.1	-0.00419479	0.804523	-0.123455	-0.31991	-0.325043	0.558153	0.1	-0.00818598	-0.160658	-0.0121487	0.313554	-0.234007	-0.756668	-0.217815	2.28044	1.50249	0.0133049	-0.0278198	-0.863488	-0.269253	-0.354712	2.02045	2.04368	0.00417504	-0.00403576
4.15	-0.12233	-0.0722638	-0.125659	0.848851	0.98009	-0.315154	-0.123803	0.00608655	-0.111647	-1.18149	-0.0916064	0.1	-0.00419479	0.765459	-0.124178	-0.338497	-0.299834	0.541137	0.1	-0.00818598	-0.167983	0.000159826	0.297394	-0.28231	-0.75059	-0.241286	2.2693	1.51155	0.0133049	-0.0278198	-0.848949	-0.272084	-0.361607	2.02412	2.03501	0.00417504	-0.00403576
4.16	-0.113306	-0.0778598	-0.118205	0.850413	0.977781	-0.31588	-0.0916587	-0.000885475	-0.11341	-1.32686	-0.0878399	0.1	-0.00419479	0.728729	-0.119795	-0.349519	-0.296883	0.515236	0.1	-0.00818598	-0.177258	0.00760954	0.276753	-0.331251	-0.742054	-0.261097	2.24979	1.52314	0.0133049	-0.0278198	-0.830333	-0.278945	-0.365951	2.02357	2.02783	0.00417504	-0.00403576
4.17	-0.103793	-0.0780221	-0.109117	0.851529	0.974465	-0.316934	-0.0539576	-0.0148217	-0.117277	-1.47404	-0.0849791	0.1	-0.00419479	0.696176	-0.109637	-0.352074	-0.31473	0.482786	0.1	-0.00818598	-0.187008	0.00976673	0.251648	-0.379661	-0.731185	-0.277044	2.22119	1.53795	0.0133049	-0.0278198	-0.807901	-0.290112	-0.367442	2.01827	2.0219	0.00417504	-0.00403576
4.18	-0.0951874	-0.0726774	-0.0982384	0.852139	0.970069	-0.31829	-0.00950448	-0.035275	-0.122013	-1.61942	-0.0815804	0.1	-0.00419479	0.669547	-0.0933505	-0.345862	-0.351242	0.447677	0.1	-0.00818598	-0.195832	0.00671014	0.222244	-0.426359	-0.718139	-0.289157	2.1829	1.55592	0.0133049	-0.0278198	-0.781608	-0.305579	-0.365847	2.0077	2.01687	0.00417504	-0.00403576
4.19	-0.0887233	-0.0622518	-0.085505	0.852191	0.964649	-0.319903	0.0431423	-0.0610856	-0.126185	-1.7598	-0.0759606	0.1	-0.00419479	0.649994	-0.0710675	-0.331183	-0.403737	0.415404	0.1	-0.00818598	-0.202744	-0.000992369	0.188933	-0.470233	-0.70309	-0.297639	2.1346	1.57612	0.0133049	-0.0278198	-0.751077	-0.325076	-0.360981	1.99151	2.01235	0.00417504	-0.00403576
4.2	-0.0851863	-0.0476818	-0.0709952	0.851651	0.958536	-0.321693	0.105182	-0.0904231	-0.128412	-1.89224	-0.0667155	0.1	-0.00419479	0.6376	-0.0435674	-0.308945	-0.468943	0.392489	0.1	-0.00818598	-0.207401	-0.0123324	0.152398	-0.510355	-0.686209	-0.302793	2.07635	1.59662	0.0133049	-0.0278198	-0.715676	-0.348106	-0.352712	1.96972	2.00802	0.00417504	-0.00403576
4.21	-0.084699	-0.0303735	-0.0549773	0.850484	0.952344	-0.323538	0.177113	-0.12091	-0.127654	-2.01394	-0.052949	0.1	-0.00419479	0.631048	-0.0123776	-0.280682	-0.542832	0.385117	0.1	-0.00818598	-0.210146	-0.0259044	0.113644	-0.54611	-0.667682	-0.304941	2.00881	1.61469	0.0133049	-0.0278198	-0.674707	-0.373988	-0.340993	1.94284	2.00368	0.00417504	-0.00403576
4.22	-0.0867863	-0.0121333	-0.0379247	0.848643	0.946682	-0.325267	0.258407	-0.149839	-0.123462	-2.12205	-0.0343296	0.1	-0.00419479	0.627611	0.0202216	-0.24855	-0.620557	0.397392	0.1	-0.00818598	-0.211892	-0.03997	0.0739697	-0.577308	-0.647751	-0.304388	1.93331	1.62729	0.0133049	-0.0278198	-0.627651	-0.401894	-0.3259	1.9121	1.99934	0.00417504	-0.00403576
4.23	-0.090496	0.0049664	-0.0205031	0.846168	0.941797	-0.326752	0.34745	-0.174459	-0.116139	-2.21379	-0.011079	0.1	-0.00419479	0.623612	0.0513474	-0.215085	-0.696735	0.430093	0.1	-0.00818598	-0.213797	-0.0525562	0.0348754	-0.604259	-0.626771	-0.301427	1.852	1.63164	0.0133049	-0.0278198	-0.574399	-0.430868	-0.307679	1.87943	1.99528	0.00417504	-0.00403576
4.24	-0.0946961	0.0188109	-0.00349085	0.843221	0.93769	-0.327966	0.441773	-0.192339	-0.106749	-2.28657	0.0160512	0.1	-0.00419479	0.615263	0.0777961	-0.182941	-0.766172	0.480652	0.1	-0.00818598	-0.216848	-0.0616194	-0.00211504	-0.627748	-0.605234	-0.29641	1.76773	1.62604	0.0133049	-0.0278198	-0.515397	-0.459855	-0.286752	1.84736	1.99199	0.00417504	-0.00403576
4.25	-0.0984429	0.0275425	0.0123723	0.840024	0.934368	-0.328889	0.538457	-0.201757	-0.0969697	-2.33825	0.0458922	0.1	-0.00419479	0.599537	0.0965217	-0.154489	-0.824613	0.544089	0.1	-0.00818598	-0.221521	-0.0652956	-0.0356936	-0.648917	-0.58373	-0.289832	1.68387	1.61051	0.0133049	-0.0278198	-0.451666	-0.487754	-0.263698	1.81868	1.99007	0.00417504	-0.00403576
4.26	-0.10122	0.0298044	0.0265655	0.836811	0.931919	-0.329425	0.634571	-0.202049	-0.0887859	-2.36734	0.0769747	0.1	-0.00419479	0.574736	0.105223	-0.131449	-0.869174	0.614165	0.1	-0.00818598	-0.2276	-0.0622229	-0.0650291	-0.669068	-0.562844	-0.282375	1.60402	1.58706	0.0133049	-0.0278198	-0.384702	-0.513508	-0.239182	1.79612	1.98995	0.00417504	-0.00403576
4.27	-0.10303	0.025019	0.0389431	0.833827	0.93045	-0.329567	0.727475	-0.193791	-0.0840924	-2.3732	0.107741	0.1	-0.00419479	0.540582	0.102813	-0.114622	-0.898364	0.684227	0.1	-0.00818598	-0.23425	-0.0517694	-0.0899337	-0.689445	-0.543039	-0.274873	1.53161	1.55931	0.0133049	-0.0278198	-0.316271	-0.536215	-0.213828	1.78188	1.99157	0.00417504	-0.00403576
4.28	-0.10426	0.013514	0.049773	0.8313	0.930026	-0.329467	0.814931	-0.178713	-0.0843102	-2.356	0.136842	0.1	-0.00419479	0.497926	0.0896272	-0.103826	-0.911823	0.747659	0.1	-0.00818598	-0.240281	-0.0341262	-0.110865	-0.711065	-0.524541	-0.268202	1.46956	1.53156	0.0133049	-0.0278198	-0.248177	-0.55524	-0.188092	1.77737	1.99415	0.00417504	-0.00403576
4.29	-0.105497	-0.00363691	0.0596139	0.829391	0.930653	-0.329293	0.895086	-0.159331	-0.0901184	-2.31664	0.163414	0.1	-0.00419479	0.448261	0.0672893	-0.0981343	-0.910007	0.798169	0.1	-0.00818598	-0.244492	-0.0102753	-0.128741	-0.734623	-0.507303	-0.263134	1.41999	1.50755	0.0133049	-0.0278198	-0.18206	-0.570276	-0.162171	1.78309	1.99617	0.00417504	-0.00403576
4.3	-0.107301	-0.0248599	0.0690884	0.828182	0.932289	-0.329135	0.966428	-0.138364	-0.101376	-2.25656	0.187228	0.1	-0.00419479	0.393299	0.038263	-0.0963129	-0.893942	0.830115	0.1	-0.00818598	-0.24592	0.0182136	-0.144629	-0.760455	-0.491026	-0.260214	1.38407	1.48953	0.0133049	-0.0278198	-0.119275	-0.581345	-0.136038	1.79871	1.99575	0.00417504	-0.00403576
4.31	-0.110121	-0.04838	0.078637	0.827688	0.934846	-0.329048	1.02777	-0.11815	-0.117219	-2.17749	0.208619	0.1	-0.00419479	0.334662	0.0053339	-0.0972415	-0.865068	0.838839	0.1	-0.00818598	-0.244009	0.0494445	-0.159421	-0.788541	-0.47526	-0.259693	1.36202	1.47784	0.0133049	-0.0278198	-0.0608898	-0.588731	-0.109579	1.82327	1.99129	0.00417504	-0.00403576
4.32	-0.114194	-0.0724304	0.0883456	0.827871	0.938211	-0.329069	1.07824	-0.100245	-0.136306	-2.08128	0.228331	0.1	-0.00419479	0.273766	-0.0289227	-0.100387	-0.825199	0.821174	0.1	-0.00818598	-0.238615	0.0814638	-0.173637	-0.818525	-0.459539	-0.261533	1.35313	1.47133	0.0133049	-0.0278198	-0.00775102	-0.592888	-0.0827753	1.85545	1.98201	0.00417504	-0.00403576
